<svg xmlns="http://www.w3.org/2000/svg" viewBox="0 0 36.66 107.74"><defs><style>.cls-1{fill:#f7d105;}</style></defs><g id="Layer_2" data-name="Layer 2"><g id="Layer_1-2" data-name="Layer 1"><path class="cls-1" d="M6.27,9a23.24,23.24,0,0,0-5.53-.1L0,.17A34.71,34.71,0,0,1,15.33,2.08,32.05,32.05,0,0,1,30.09,12.61,32.17,32.17,0,0,1,36.5,29.68a36.36,36.36,0,0,1-2,15.63,31.1,31.1,0,0,1-3.82,7.94A29.47,29.47,0,0,1,23,61a28.54,28.54,0,0,1-4.11,2.31,22,22,0,0,1,4.62,4.49A23.2,23.2,0,0,1,28,78.23a25,25,0,0,1-1.56,14.28,25.49,25.49,0,0,1-7.85,9.94,21,21,0,0,1-9.89,5,18.77,18.77,0,0,1-6.24,0l-.3-9a16.82,16.82,0,0,0,11.71-4.1,15.59,15.59,0,0,0,4.83-8.14,15.59,15.59,0,0,0-.1-6.94A14.8,14.8,0,0,0,13.83,71a15.61,15.61,0,0,0-6.54-3.06A20.73,20.73,0,0,0,2,67.28L1.86,58a24.23,24.23,0,0,0,9.55-1.31,24.8,24.8,0,0,0,11.66-8.84A23.07,23.07,0,0,0,27,40.07a23.7,23.7,0,0,0-.17-12.45A26,26,0,0,0,21,17.47a23.23,23.23,0,0,0-6.38-5.63A23,23,0,0,0,6.27,9Z"/></g></g></svg>