<svg xmlns="http://www.w3.org/2000/svg" viewBox="0 0 111.64 154.79"><defs><style>.cls-1{fill:#f58121;}.cls-2{fill:#5f5a59;}.cls-3{fill:#fff;}.cls-4{fill:#ed9dbe;}.cls-5{fill:#ff0006;}</style></defs><g id="Layer_2" data-name="Layer 2"><g id="Layer_1-2" data-name="Layer 1"><path class="cls-1" d="M0,116.73,59.77,0A56.63,56.63,0,0,1,85.38,11.39C94,18.28,98.25,26,101.35,31.74c6.69,12.42,8.32,23.53,9.33,30.83,1.43,10.35,1,17.33.52,27.85-.47,11.28-1,27.78-.8,48.54-.36,3.22-.78,6.9-1.15,10.13l-.64,5.7-61.38-.46a18.6,18.6,0,0,1-5.88-2.91,17.06,17.06,0,0,1-5.79-7.07,16.83,16.83,0,0,1-1.32-7.47q.09-10.11.17-20.2Z"/><path class="cls-2" d="M48.06,49.71l2.1,1.88a27.79,27.79,0,0,1,10-6.86,27.3,27.3,0,0,1,10.85-2,26.06,26.06,0,0,1,8.41,1.66,23.79,23.79,0,0,1,6.75,3.88,21.73,21.73,0,0,1,3.21,3.32l2.08-2a24.69,24.69,0,0,0-6.61-6A26.18,26.18,0,0,0,73.19,40a30.12,30.12,0,0,0-10.74.77,29,29,0,0,0-9.94,5A32.19,32.19,0,0,0,48.06,49.71Z"/><path class="cls-3" d="M31.13,69.89A61.23,61.23,0,0,1,50.4,55.23a44.74,44.74,0,0,1,20.78-5A44.55,44.55,0,0,1,92,56.12a54.18,54.18,0,0,1,16.41,14.49A66.16,66.16,0,0,1,88.49,86.7a40.4,40.4,0,0,1-14.9,5,38.91,38.91,0,0,1-16.41-2c-9.61-3.25-16-9.39-20.33-13.59A78.32,78.32,0,0,1,31.13,69.89Z"/><ellipse class="cls-4" cx="69.75" cy="71.05" rx="21.17" ry="20.7"/><circle class="cls-5" cx="69.75" cy="71.05" r="13.6"/><circle cx="69.75" cy="71.05" r="8.66"/></g></g></svg>