<svg xmlns="http://www.w3.org/2000/svg" viewBox="0 0 119.18 192.44"><defs><style>.cls-1{fill:#f47f66;}.cls-2{fill:#6c1d10;}.cls-3{fill:#fff;}.cls-4{fill:#f03f46;}</style></defs><g id="Layer_2" data-name="Layer 2"><g id="Layer_1-2" data-name="Layer 1"><path class="cls-1" d="M0,30.94A27.72,27.72,0,0,1,3.38,16.58a28.43,28.43,0,0,1,7.94-8.94A34,34,0,0,1,25,1.43c3.4-.7,8-1.65,13.42,0A25.13,25.13,0,0,1,49.57,8.89,36.55,36.55,0,0,1,57,21.06a49.74,49.74,0,0,1,2.74,8.69,31.09,31.09,0,0,1,1.9-8.42A35.17,35.17,0,0,1,70.93,8.14c3.51-3.4,5.49-5.33,8.95-6.71,6.82-2.72,13.29-.88,16.39,0A33.14,33.14,0,0,1,107,6.9a29.33,29.33,0,0,1,11.17,16.39,31,31,0,0,1,1.06,7.3,24.25,24.25,0,0,0-8,1.49,25.18,25.18,0,0,0-10.3,7.32,29.6,29.6,0,0,0-4.34,6.69,29,29,0,0,0-1.37,3.4L95,80.54a29.63,29.63,0,0,1-2.48,9.67,34.75,34.75,0,0,1-6,8.8,36.51,36.51,0,0,1-7,6.7,32.45,32.45,0,0,1-12.25,5.07,38.76,38.76,0,0,1-14,.58,29.12,29.12,0,0,1-11.36-3.74,30.2,30.2,0,0,1-6.82-5.83,37.07,37.07,0,0,1-7.63-11.14A34.48,34.48,0,0,1,24.8,80.58l-.27-29.79a23.68,23.68,0,0,0-4.31-10.38A23.49,23.49,0,0,0,11,32.94,23.36,23.36,0,0,0,0,30.94Z"/><path class="cls-2" d="M31.13,31.62H87.85L88,65.49a37.78,37.78,0,0,1-1.85,8.18,16.74,16.74,0,0,1-3,5.91A15,15,0,0,1,78,83.38a24,24,0,0,1-9.13,2.49,80.42,80.42,0,0,1-15.6-.18c-6-.57-9-.89-11.51-2.26a20.6,20.6,0,0,1-7.39-7.32,23.42,23.42,0,0,1-3.24-8.48Z"/><path class="cls-3" d="M33.5,31.62H85.68V46.77a6.55,6.55,0,0,1-1.78,2.85,6.21,6.21,0,0,1-2.5,1.43,6,6,0,0,1-3.58-.13,6.43,6.43,0,0,1-2.68-1.87,7.68,7.68,0,0,1-1.43-2.3q0-7.56.05-15.12H72.58V46.54a7.1,7.1,0,0,1-4.06,4.15,5,5,0,0,1-5.94-1.07,8.35,8.35,0,0,1-2.24-3l0-15H59.15v15a18.48,18.48,0,0,1-1.41,2.19,6.56,6.56,0,0,1-1.38,1.49,5.23,5.23,0,0,1-2.18.91,6.22,6.22,0,0,1-4.23-1,7.46,7.46,0,0,1-3.06-3.92V31.63H45.73V47a7.78,7.78,0,0,1-1.65,2.45,6,6,0,0,1-2.41,1.63,5.83,5.83,0,0,1-4.11-.32,6.63,6.63,0,0,1-2.57-2,7.46,7.46,0,0,1-1.33-2.63Q33.59,38.87,33.5,31.62Z"/><path class="cls-4" d="M39.61,62.34l40,.44L79,176.37a18.58,18.58,0,0,1-2.08,6.06,19.14,19.14,0,0,1-6.73,7,20.6,20.6,0,0,1-5.91,2.39,19.47,19.47,0,0,1-17.82-4.2,19.25,19.25,0,0,1-4.88-6.53,18.3,18.3,0,0,1-1.45-5.35Z"/></g></g></svg>