<svg xmlns="http://www.w3.org/2000/svg" viewBox="0 0 70.35 89.69"><defs><style>.cls-1{fill:none;stroke:#ca1b5c;stroke-linecap:round;stroke-miterlimit:10;stroke-width:7px;}</style></defs><g id="Layer_2" data-name="Layer 2"><g id="Layer_1-2" data-name="Layer 1"><path class="cls-1" d="M3.5,23.06a27.55,27.55,0,0,1,10.08-.3C28.9,25.34,38.39,43.23,37.64,67.15V82l-4.88-2.92c-3.59,4.57-7.7,7.52-10.19,7s-3.39-4.38-2-7.3,5.29-5.83,9.09-5.55c5.91.45,8.18,8.7,8,8.76s-2.43-6-6.56-6.21c-3.39-.18-6.67,3.68-9.06,7.28"/><path class="cls-1" d="M57.59,3.5c-3.46,4.32-7.52,10.82-8,18.88-.45,7.07,2.32,7.5,3.07,17.78.61,8.45,1.12,15.41-2,23.62a33.87,33.87,0,0,0-1.9,11c0,5.7,1.45,7.43,3.33,8.18a7.57,7.57,0,0,0,5.54,0c2-1,2.4-3.65,0-6.13a14.06,14.06,0,0,0,6.21-2.05c3.57-2.39,3.06-5.58,3-6"/></g></g></svg>