<svg xmlns="http://www.w3.org/2000/svg" viewBox="0 0 92.44 92.05"><defs><style>.cls-1{fill:#8dd9f9;}.cls-2{fill:#fff;}.cls-3{fill:#ca1b5c;}</style></defs><g id="Layer_2" data-name="Layer 2"><g id="Layer_1-2" data-name="Layer 1"><path class="cls-1" d="M27.52,27.34l.2-12.64a17.88,17.88,0,0,1,4.89-9.2,18.47,18.47,0,0,1,9-4.71c1.94-.49,7.51-1.88,13.19.85a18.76,18.76,0,0,1,6.12,4.87,22.47,22.47,0,0,1,4.13,6.87l0,14.26H78.89c1.8.31,7.08,1.48,10.35,6a18.25,18.25,0,0,1,2.87,8.2,24.33,24.33,0,0,1,0,8.05A17.21,17.21,0,0,1,90,56.38a16.24,16.24,0,0,1-5.61,5.47,18.56,18.56,0,0,1-7.15,2.58l-12.11.43L65,78.09A17.57,17.57,0,0,1,60.77,86a18.3,18.3,0,0,1-5.93,4.14A19.28,19.28,0,0,1,48.68,92a19.63,19.63,0,0,1-13.32-3.64,19.42,19.42,0,0,1-4.2-4.3,19.83,19.83,0,0,1-3.09-6.75Q28,70.94,28,64.62H11.71a25.33,25.33,0,0,1-8.07-8A21.29,21.29,0,0,1,.18,47.3a16.19,16.19,0,0,1,1.1-8.88A16.6,16.6,0,0,1,6,32.53a24.56,24.56,0,0,1,8.62-4.89Z"/><circle class="cls-2" cx="47.11" cy="46.03" r="21.57"/><ellipse class="cls-3" cx="47.11" cy="46.03" rx="13.37" ry="13.77"/></g></g></svg>