<svg xmlns="http://www.w3.org/2000/svg" viewBox="0 0 126.13 192.57"><defs><style>.cls-1{fill:#fecd07;}.cls-2{fill:#fff;}.cls-3{fill:#29c2f4;}.cls-4{fill:#2a4da1;}</style></defs><g id="Layer_2" data-name="Layer 2"><g id="Layer_1-2" data-name="Layer 1"><path class="cls-1" d="M52.22,35.13A32.4,32.4,0,0,1,78.5,61.74l1.64,48.94.69,23.67c1.15,2.16,6.27,11.21,16.72,14.1a21.61,21.61,0,0,0,12.81,0,22.61,22.61,0,0,0,10-7.24,29.48,29.48,0,0,0,5.73-9.84V49.59a81,81,0,0,0-15.44-25.95A75.62,75.62,0,0,0,92,8.2,58.64,58.64,0,0,0,71.6.67C58.27-1.46,47.74,2,42,3.93A60.59,60.59,0,0,0,18.72,17.4,61.89,61.89,0,0,0,3.94,39.73,69.4,69.4,0,0,0,0,52.87L.58,189.11a2.91,2.91,0,0,0,2.5,3.46A2.88,2.88,0,0,0,6,190L6.53,62.5a43.62,43.62,0,0,1,9-15.44,39.12,39.12,0,0,1,12.89-9.77A36.12,36.12,0,0,1,41,33.92,33.35,33.35,0,0,1,52.22,35.13Z"/><path class="cls-2" d="M7.72,73.55A72.64,72.64,0,0,1,30.61,58.88a61,61,0,0,1,24.68-5A60.89,60.89,0,0,1,80,59.78,62.21,62.21,0,0,1,99.46,74.26a78.21,78.21,0,0,1-23.6,16.1,54.34,54.34,0,0,1-17.71,5,54.38,54.38,0,0,1-19.49-2c-11.41-3.26-19-9.39-24.14-13.59A83.85,83.85,0,0,1,7.72,73.55Z"/><ellipse class="cls-3" cx="53.59" cy="74.71" rx="22.33" ry="21.58"/><circle class="cls-4" cx="53.59" cy="74.71" r="12.95"/></g></g></svg>