<svg xmlns="http://www.w3.org/2000/svg" viewBox="0 0 150.56 74.23"><defs><style>.cls-1{fill:#774d9f;}.cls-2{fill:#b84c9b;}.cls-3{fill:#fff;}.cls-4{fill:#d8bcb0;}.cls-5{fill:#8f181a;}</style></defs><g id="Layer_2" data-name="Layer 2"><g id="Layer_1-2" data-name="Layer 1"><path class="cls-1" d="M134.5,0H46.7A43.08,43.08,0,0,0,31.54,5.73,37,37,0,0,0,14.35,28.4a34.65,34.65,0,0,0,6.59,31.87,39.22,39.22,0,0,0,12.28,9.46A51.79,51.79,0,0,0,43.37,74l91.13.25L85.92,55.11l48.7-17.89-49-19.4"/><path class="cls-2" d="M150.56,74,118.63,55.49l31.88-19.06L118.05,18.06,150.05,0H134.27L85.37,17.82l49,19.4L85.68,55.11l48.58,19.12Z"/><path class="cls-3" d="M0,36A72.52,72.52,0,0,1,22.89,21.29a61.13,61.13,0,0,1,24.68-5,61,61,0,0,1,24.67,5.9,62,62,0,0,1,19.5,14.49A78.09,78.09,0,0,1,68.13,52.76a54.25,54.25,0,0,1-17.7,5,54.24,54.24,0,0,1-19.49-2c-11.42-3.25-19-9.39-24.14-13.59A80.34,80.34,0,0,1,0,36Z"/><ellipse class="cls-4" cx="45.87" cy="37.12" rx="22.33" ry="21.58"/><circle class="cls-5" cx="45.87" cy="37.12" r="12.95"/></g></g></svg>