<svg xmlns="http://www.w3.org/2000/svg" viewBox="0 0 112.12 85.33"><defs><style>.cls-1{fill:#0a0a08;}.cls-2{fill:#f15b76;}.cls-3{fill:#020805;}</style></defs><g id="Layer_2" data-name="Layer 2"><g id="Layer_1-2" data-name="Layer 1"><path class="cls-1" d="M0,58.39a57.64,57.64,0,0,1,9.16-8.46,54.64,54.64,0,0,1,11.22-6.48A50.24,50.24,0,0,1,29,40.77V0h8.12V37.14L44.4,37V0H52V35.59h8V0h8.12V36.8l6.74.34V0h8.81V40.6a59.89,59.89,0,0,1,28.5,19.87A93,93,0,0,1,103,68.93c-4.17,3.37-9.86,8-17.8,11.23-6.53,2.68-11.53,3.2-20.73,4.15-9.94,1-16,1.65-24,0S27.3,79.79,19.52,75.5C10.28,70.4,6.28,66.42,4,63.75A45.31,45.31,0,0,1,0,58.39Z"/><circle class="cls-2" cx="56.72" cy="60.11" r="21.88"/><circle class="cls-3" cx="56.72" cy="60.11" r="11.99"/></g></g></svg>