<svg xmlns="http://www.w3.org/2000/svg" viewBox="0 0 48.38 75.33"><defs><style>.cls-1{fill:#f15a72;}</style></defs><g id="Layer_2" data-name="Layer 2"><g id="Layer_1-2" data-name="Layer 1"><path class="cls-1" d="M10.93,0A37.67,37.67,0,0,1,21.79,1.81a40.64,40.64,0,0,1,13.39,7.6A40,40,0,0,1,43.5,19a32.85,32.85,0,0,1,4.16,10.13c1.27,5.72.6,10.27,0,14.29a34.87,34.87,0,0,1-2.53,9.95A32.58,32.58,0,0,1,35.9,65.13a42.64,42.64,0,0,1-12.62,7.38c-6.17,2.34-9.8,3.71-13.68,2.17-4.87-1.94-6.88-7.18-8-10.16A19.17,19.17,0,0,1,.44,53a18.56,18.56,0,0,1,3.94-7.75,18.87,18.87,0,0,1,5.3-4.33l17.62-.12a3.28,3.28,0,0,0,0-6.35l-18.23-.3a25.76,25.76,0,0,1-5.19-5.94,22.33,22.33,0,0,1-3.44-8.5,21.54,21.54,0,0,1,0-7.24A18.56,18.56,0,0,1,5.14,4,18.43,18.43,0,0,1,10.93,0Z"/></g></g></svg>