<svg xmlns="http://www.w3.org/2000/svg" viewBox="0 0 62.52 166.03"><defs><style>.cls-1{fill:#f7acce;stroke-width:8px;}.cls-1,.cls-2{stroke:#fe00fe;stroke-linecap:round;stroke-miterlimit:10;}.cls-2{fill:none;stroke-width:7px;}</style></defs><g id="Layer_2" data-name="Layer 2"><g id="Layer_1-2" data-name="Layer 1"><path class="cls-1" d="M55.54,4q1.49,70,3,140c-.08,1.58-.62,9.84-7.12,14.8-5.1,3.88-10.82,3.43-16.16,3-3.76-.29-14.13-1.27-22.47-9.86A33.14,33.14,0,0,1,4,134.36"/><path class="cls-2" d="M20.14,138.47c-3.42-1.35-6.79,0-7.7,2.16-1.06,2.54,1.51,5.69,4,6.77,3,1.32,7.1,0,9.7-3.39"/><path class="cls-2" d="M42.47,148.63c-4.57-1.1-8.39.6-9.24,3.08-.68,2,.64,4.34,2,5.55,2.94,2.62,8.55,2.24,13.86-1.23"/></g></g></svg>